#!OML:ASF F:\VICON\USERDATA\INSTALL\rory3\rory3.ASF
:FULLY-SPECIFIED
:DEGREES
2083
root -3.01366 17.7782 -6.01187 5.52114 47.2266 -0.532643
lowerback 5.34515 -3.62101 -3.88268
upperback 1.84857 -4.9743 2.09509
thorax -0.561899 -2.50564 4.59965
lowerneck -17.2456 -10.5882 -15.7965
upperneck 17.9732 -11.8045 6.64009
head 9.91131 -5.8866 3.12678
rclavicle -1.14177e-014 1.78906e-014
rhumerus -36.4184 -3.22117 -79.054
rradius 41.2364
rwrist 24.9466
rhand -26.9567 -1.00403
rfingers 7.12502
rthumb -0.37826 -30.9834
lclavicle -1.14177e-014 1.78906e-014
lhumerus -39.3866 8.42409 72.7506
lradius 30.6571
lwrist -16.7666
lhand -8.48202 31.8349
lfingers 7.12502
lthumb 17.445 61.0721
rfemur -26.9913 1.4795 14.0426
rtibia 28.6114
rfoot -9.09217 -12.0133
rtoes 14.9576
lfemur -0.641231 2.26557 -21.2641
ltibia 18.2113
lfoot -17.7306 13.45
ltoes -11.9215
2084
root -3.01814 17.7779 -6.06362 5.56594 47.2434 -0.479851
lowerback 5.15148 -3.62953 -4.15963
upperback 1.94204 -4.99164 2.1796
thorax -0.323451 -2.52471 4.82321
lowerneck -17.3512 -10.5495 -15.7962
upperneck 17.9155 -11.7263 6.62532
head 9.89919 -5.84883 3.13128
rclavicle -3.32716e-014 3.18055e-015
rhumerus -36.0376 -2.87031 -79.2878
rradius 41.2623
rwrist 24.6876
rhand -27.1727 -1.13563
rfingers 7.12502
rthumb -0.586887 -31.1146
lclavicle -3.32716e-014 3.18055e-015
lhumerus -39.1767 8.17769 73.2149
lradius 30.9161
lwrist -16.7396
lhand -8.70723 31.7051
lfingers 7.12502
lthumb 17.2282 60.9614
rfemur -27.0549 1.76338 13.805
rtibia 28.4714
rfoot -9.11724 -12.4292
rtoes 15.2154
lfemur -0.8142 2.36091 -21.4296
ltibia 18.2164
lfoot -17.7669 13.358
ltoes -11.4594
2085
root -3.01824 17.7785 -6.11287 5.62558 47.3679 -0.36401
lowerback 4.92064 -3.68449 -4.43826
upperback 2.04254 -5.06837 2.26347
thorax -0.0493238 -2.57566 5.04575
lowerneck -17.3605 -10.5371 -15.9954
upperneck 17.8393 -11.6797 6.75689
head 9.89036 -5.82559 3.21522
rclavicle -7.72527e-014 9.93923e-015
rhumerus -35.5991 -2.55112 -79.4563
rradius 41.1799
rwrist 24.6634
rhand -27.245 -1.14082
rfingers 7.12502
rthumb -0.656738 -31.1196
lclavicle -7.72527e-014 9.93923e-015
lhumerus -38.8654 8.02191 73.7283
lradius 31.0531
lwrist -16.7359
lhand -8.955 31.585
lfingers 7.12502
lthumb 16.9898 60.862
rfemur -27.0209 1.7968 13.5612
rtibia 28.2988
rfoot -9.01402 -12.6703
rtoes 15.1807
lfemur -0.960407 2.46863 -21.614
ltibia 18.2795
lfoot -17.7749 13.129
ltoes -11.2165
2086
root -3.01943 17.7776 -6.15674 5.46211 47.4114 -0.39341
lowerback 5.01897 -3.6325 -4.52188
upperback 1.94725 -5.00841 2.25031
thorax -0.203606 -2.53991 5.08912
lowerneck -17.102 -10.5354 -16.086
upperneck 17.9181 -11.7267 6.86314
head 9.89141 -5.84964 3.26783
rclavicle 4.33351e-014 -8.84592e-015
rhumerus -35.7295 -2.7132 -79.5883
rradius 41.2378
rwrist 24.9416
rhand -26.9577 -0.799398
rfingers 7.12502
rthumb -0.379229 -30.7788
lclavicle 4.33351e-014 -8.84592e-015
lhumerus -38.7326 7.64592 74.1055
lradius 31.0894
lwrist -16.7541
lhand -9.04957 31.3053
lfingers 7.12502
lthumb 16.8987 60.5901
rfemur -26.8479 1.93823 13.4476
rtibia 28.0875
rfoot -8.8468 -12.8792
rtoes 14.7764
lfemur -0.993047 2.72517 -21.6621
ltibia 18.3996
lfoot -17.7004 12.9276
ltoes -11.5503
2087
root -3.02184 17.7778 -6.20067 5.21104 47.4101 -0.564056
lowerback 5.13892 -3.58703 -4.45667
upperback 1.83619 -4.95141 2.20617
thorax -0.401979 -2.50271 5.01934
lowerneck -16.9151 -10.5156 -15.9219
upperneck 18.0142 -11.7531 6.74512
head 9.87655 -5.86919 3.20438
rclavicle 1.24116e-014 2.31584e-014
rhumerus -35.9206 -2.8123 -79.8488
rradius 41.4247
rwrist 24.9787
rhand -26.6741 -0.572265
rfingers 7.12502
rthumb -0.105328 -30.552
lclavicle 1.24116e-014 2.31584e-014
lhumerus -38.6327 7.39232 74.3358
lradius 31.1246
lwrist -16.8694
lhand -9.09033 31.1379
lfingers 7.12502
lthumb 16.8595 60.4261
rfemur -26.7064 2.0994 13.4424
rtibia 27.8548
rfoot -8.65111 -13.1111
rtoes 14.3952
lfemur -1.05147 2.9134 -21.6247
ltibia 18.5433
lfoot -17.7311 12.7651
ltoes -11.4658
2088
root -3.02415 17.7786 -6.24755 5.07876 47.4595 -0.677322
lowerback 5.07346 -3.59725 -4.43913
upperback 1.83912 -4.96207 2.19331
thorax -0.36398 -2.50913 4.9914
lowerneck -16.8732 -10.5183 -15.8058
upperneck 18.0028 -11.7739 6.65395
head 9.85349 -5.88145 3.15327
rclavicle -8.8894e-014 -2.40032e-014
rhumerus -35.7049 -2.62948 -80.1768
rradius 41.5001
rwrist 24.6638
rhand -26.6222 -0.656551
rfingers 7.12502
rthumb -0.0551924 -30.6363
lclavicle -8.8894e-014 -2.40032e-014
lhumerus -38.3147 7.22282 74.6977
lradius 31.18
lwrist -16.8627
lhand -9.41468 31.3256
lfingers 7.12502
lthumb 16.5472 60.64
rfemur -26.6432 2.24755 13.3724
rtibia 27.6129
rfoot -8.56436 -13.3838
rtoes 14.7541
lfemur -1.21124 3.0413 -21.6388
ltibia 18.7164
lfoot -17.7406 12.5971
ltoes -11.5322
2089
root -3.0265 17.7794 -6.29224 5.07566 47.5091 -0.676961
lowerback 4.89746 -3.59238 -4.57724
upperback 1.87068 -4.95536 2.21749
thorax -0.219802 -2.51186 5.07864
lowerneck -16.9495 -10.5466 -15.8699
upperneck 18.1264 -11.7926 6.67203
head 9.91911 -5.89188 3.16207
rclavicle -5.63058e-014 3.68249e-014
rhumerus -35.3929 -2.32707 -80.4359
rradius 41.5293
rwrist 24.3485
rhand -26.3301 -0.772696
rfingers 7.12502
rthumb 0.226887 -30.7523
lclavicle -5.63058e-014 3.68249e-014
lhumerus -37.9427 7.00715 75.1829
lradius 31.3728
lwrist -16.6314
lhand -9.51307 31.3268
lfingers 7.12502
lthumb 16.4525 60.6491
rfemur -26.6035 2.3511 13.2332
rtibia 27.3615
rfoot -8.45025 -13.64
rtoes 14.7676
lfemur -1.43264 3.28998 -21.7146
ltibia 18.9274
lfoot -17.7419 12.308
ltoes -11.7201
2090
root -3.02707 17.7794 -6.33464 5.07728 47.5403 -0.583159
lowerback 4.78451 -3.60699 -4.77299
upperback 1.89558 -4.97964 2.19263
thorax -0.113138 -2.52909 5.15325
lowerneck -17.0622 -10.5263 -15.8355
upperneck 18.2904 -11.7704 6.70583
head 9.99503 -5.87502 3.16761
rclavicle 1.80024e-014 -1.47101e-014
rhumerus -35.1648 -2.17157 -80.7191
rradius 41.5615
rwrist 24.4234
rhand -25.9161 -0.56422
rfingers 7.12502
rthumb 0.626743 -30.543
lclavicle 1.80024e-014 -1.47101e-014
lhumerus -37.6508 6.76088 75.6155
lradius 31.6505
lwrist -16.2621
lhand -9.50103 31.0881
lfingers 7.12502
lthumb 16.4641 60.4095
rfemur -26.4796 2.44295 13.0314
rtibia 27.1235
rfoot -8.3134 -13.8012
rtoes 14.8648
lfemur -1.57091 3.57484 -21.8478
ltibia 19.1517
lfoot -17.8194 11.9676
ltoes -11.4264
2091
root -3.02805 17.7801 -6.37979 4.94903 47.5407 -0.62261
lowerback 4.70494 -3.63238 -4.86157
upperback 1.95195 -5.01346 2.18353
thorax 0.000799946 -2.55135 5.18553
lowerneck -17.1644 -10.5018 -15.7178
upperneck 18.2768 -11.7381 6.6525
head 9.99285 -5.85531 3.13305
rclavicle 3.05631e-014 -4.91992e-015
rhumerus -34.8643 -2.10245 -80.9923
rradius 41.6154
rwrist 24.6466
rhand -25.743 -0.339002
rfingers 7.12502
rthumb 0.793946 -30.3173
lclavicle 3.05631e-014 -4.91992e-015
lhumerus -37.263 6.62636 76.0455
lradius 31.8528
lwrist -15.9486
lhand -9.48107 30.5212
lfingers 7.12502
lthumb 16.4833 59.841
rfemur -26.3692 2.59084 12.9009
rtibia 26.9193
rfoot -8.31874 -13.9314
rtoes 15.5753
lfemur -1.68439 3.78038 -21.9078
ltibia 19.3565
lfoot -17.913 11.6984
ltoes -10.7639
2092
root -3.0307 17.7795 -6.42712 4.89963 47.4969 -0.618094
lowerback 4.60049 -3.61168 -4.91984
upperback 1.9929 -4.98387 2.13055
thorax 0.0979191 -2.54048 5.15253
lowerneck -17.1478 -10.4905 -15.615
upperneck 18.1632 -11.7484 6.65151
head 9.94315 -5.85263 3.11705
rclavicle -1.10574e-015 5.46658e-016
rhumerus -34.5291 -1.94017 -81.3034
rradius 41.6709
rwrist 24.4232
rhand -25.8042 -0.53367
rfingers 7.12502
rthumb 0.734876 -30.5121
lclavicle -1.10574e-015 5.46658e-016
lhumerus -36.7455 6.39661 76.4933
lradius 31.9841
lwrist -15.6436
lhand -9.37889 30.2084
lfingers 7.12502
lthumb 16.5817 59.52
rfemur -26.3514 2.66959 12.748
rtibia 26.7189
rfoot -8.33441 -14.0258
rtoes 16.207
lfemur -1.88364 3.91521 -22.0427
ltibia 19.5857
lfoot -17.8756 11.6505
ltoes -10.8036
2093
root -3.03489 17.7797 -6.47072 4.91825 47.4827 -0.52148
lowerback 4.62543 -3.53079 -4.98256
upperback 1.92898 -4.88207 2.00965
thorax -0.000441584 -2.48472 5.06444
lowerneck -17.0792 -10.5456 -15.6085
upperneck 18.2502 -11.8775 6.79348
head 9.98611 -5.89946 3.14617
rclavicle 2.58886e-015 5.03174e-016
rhumerus -34.484 -2.02557 -81.5867
rradius 41.847
rwrist 24.2414
rhand -26.2603 -0.595242
rfingers 7.12502
rthumb 0.2943 -30.5748
lclavicle 2.58886e-015 5.03174e-016
lhumerus -36.3034 5.88273 76.9863
lradius 32.1188
lwrist -15.4241
lhand -9.37952 30.9387
lfingers 7.12502
lthumb 16.5811 60.2504
rfemur -26.3161 2.63594 12.5837
rtibia 26.5299
rfoot -8.25053 -14.0617
rtoes 16.1569
lfemur -2.06833 4.07253 -22.2151
ltibia 19.8176
lfoot -17.8934 11.5424
ltoes -11.0572
2094
root -3.04124 17.7796 -6.5089 4.70062 47.5379 -0.645193
lowerback 4.66192 -3.48073 -4.99304
upperback 1.92916 -4.81777 1.95772
thorax -0.0323466 -2.45119 5.0175
lowerneck -17.1136 -10.597 -15.5798
upperneck 18.4425 -11.9856 6.89358
head 10.0787 -5.93771 3.15619
rclavicle 5.77283e-014 -8.53532e-015
rhumerus -34.4983 -2.19619 -81.8219
rradius 42.2238
rwrist 24.4089
rhand -26.4736 -0.35357
rfingers 7.12502
rthumb 0.088293 -30.3333
lclavicle 5.77283e-014 -8.53532e-015
lhumerus -35.8237 5.37498 77.5219
lradius 32.2115
lwrist -15.2293
lhand -9.60557 32.2056
lfingers 7.12502
lthumb 16.3634 61.5353
rfemur -26.1757 2.76412 12.578
rtibia 26.3616
rfoot -8.20468 -14.2681
rtoes 15.6245
lfemur -2.16232 4.3804 -22.1562
ltibia 20.0299
lfoot -17.9049 11.228
ltoes -11.2735
2095
root -3.04523 17.7808 -6.54803 4.4972 47.6237 -0.75033
lowerback 4.59784 -3.48581 -5.0268
upperback 1.98458 -4.8222 1.9393
thorax 0.0625324 -2.4576 5.01021
lowerneck -17.176 -10.6386 -15.5725
upperneck 18.6093 -12.0518 6.92593
head 10.1596 -5.96407 3.15164
rclavicle -7.6147e-014 8.24956e-015
rhumerus -34.4097 -2.15507 -82.0322
rradius 42.6968
rwrist 24.6246
rhand -26.0493 -0.550446
rfingers 7.12502
rthumb 0.498145 -30.5296
lclavicle -7.6147e-014 8.24956e-015
lhumerus -35.1767 5.11539 78.0824
lradius 32.1351
lwrist -15.3235
lhand -9.73852 34.1124
lfingers 7.12502
lthumb 16.2354 63.4526
rfemur -26.031 2.64084 12.5998
rtibia 26.2192
rfoot -7.98881 -14.299
rtoes 14.5957
lfemur -2.23025 4.61863 -22.1249
ltibia 20.1845
lfoot -17.8594 10.8928
ltoes -11.0814
2096
root -3.05006 17.7822 -6.58381 4.38004 47.7367 -0.8341
lowerback 4.50442 -3.51936 -5.07539
upperback 1.98344 -4.86519 1.91768
thorax 0.120992 -2.48127 5.00907
lowerneck -17.1968 -10.6834 -15.6211
upperneck 18.7669 -12.123 6.99564
head 10.237 -5.99352 3.16942
rclavicle -3.28367e-014 2.00773e-014
rhumerus -34.3465 -1.80013 -82.341
rradius 43.1511
rwrist 24.5966
rhand -26.1668 -0.978292
rfingers 7.12502
rthumb 0.384656 -30.9577
lclavicle -3.28367e-014 2.00773e-014
lhumerus -34.6189 4.59818 78.715
lradius 32.2296
lwrist -15.453
lhand -9.57874 35.2308
lfingers 7.12502
lthumb 16.3893 64.5584
rfemur -25.9551 2.36476 12.6427
rtibia 26.0818
rfoot -7.70612 -14.253
rtoes 13.6805
lfemur -2.36966 4.80807 -22.0939
ltibia 20.3279
lfoot -17.8612 10.5405
ltoes -10.5792
2097
root -3.05569 17.7822 -6.6115 4.22089 47.8788 -0.901762
lowerback 4.44317 -3.56034 -5.24107
upperback 1.98087 -4.92407 1.92549
thorax 0.175127 -2.51406 5.10658
lowerneck -17.1573 -10.7125 -15.7497
upperneck 18.8641 -12.1728 7.1279
head 10.2894 -6.01308 3.22787
rclavicle 1.07369e-013 -2.64384e-014
rhumerus -34.3107 -1.31639 -82.6476
rradius 43.6194
rwrist 24.6489
rhand -26.8524 -1.37747
rfingers 7.12502
rthumb -0.277513 -31.357
lclavicle 1.07369e-013 -2.64384e-014
lhumerus -34.0824 3.94571 79.4174
lradius 32.3479
lwrist -15.5697
lhand -9.8339 34.4932
lfingers 7.12502
lthumb 16.1436 63.8409
rfemur -25.7963 2.58968 12.5836
rtibia 25.9893
rfoot -7.91765 -14.6006
rtoes 13.6515
lfemur -2.38178 5.00176 -22.0309
ltibia 20.4142
lfoot -17.9248 10.186
ltoes -10.2586
